#!OML:ASF F:\VICON\USERDATA\INSTALL\rory3\rory3.ASF
:FULLY-SPECIFIED
:DEGREES
208
root 13.1395 17.8068 2.71357 -170.907 -67.8759 170.556
lowerback 13.2688 2.81676 -0.871412
upperback 1.26141 3.53919 0.146539
thorax -6.16506 1.72309 -0.000850021
lowerneck -14.6464 -0.466363 -11.8038
upperneck 38.4837 -1.58644 6.965
head 16.3886 -2.06785 4.74611
rclavicle 1.76918e-014 1.03368e-014
rhumerus -33.9764 -22.0467 -73.2549
rradius 37.9558
rwrist 6.84265
rhand -17.3671 9.19717
rfingers 7.12502
rthumb 8.88116 -20.5959
lclavicle 1.76918e-014 1.03368e-014
lhumerus -32.958 9.15785 79.9134
lradius 32.8175
lwrist -5.77167
lhand -21.7725 22.4975
lfingers 7.12502
lthumb 4.6284 52.4269
rfemur -9.71364 7.82982 2.4614
rtibia 34.7686
rfoot -15.1031 -4.48376
rtoes 3.98911
lfemur -6.55149 -8.92847 -16.3692
ltibia 18.1108
lfoot -11.1384 -11.6087
ltoes -9.15424
209
root 13.1246 17.8175 2.79731 -171.076 -67.5115 170.703
lowerback 13.2953 2.79838 -1.07165
upperback 1.27042 3.48396 0.145806
thorax -6.18173 1.70061 0.119809
lowerneck -14.5422 -0.45273 -11.7869
upperneck 38.5671 -1.64134 7.01117
head 16.4132 -2.0966 4.75512
rclavicle -4.01545e-014 3.97569e-015
rhumerus -33.9986 -21.8613 -73.5705
rradius 38.0129
rwrist 7.28043
rhand -17.3296 9.30133
rfingers 7.12502
rthumb 8.91725 -20.4902
lclavicle -4.01545e-014 3.97569e-015
lhumerus -32.7766 7.23675 80.3538
lradius 33.2292
lwrist -4.19906
lhand -22.662 22.237
lfingers 7.12502
lthumb 3.76951 52.1834
rfemur -10.1869 6.94879 2.93762
rtibia 36.0791
rfoot -15.9352 -3.38515
rtoes 6.56726
lfemur -6.41063 -8.7923 -16.6677
ltibia 17.9136
lfoot -11.1095 -11.4567
ltoes -9.29021
210
root 13.1082 17.8358 2.87698 -171.179 -67.1254 170.728
lowerback 13.3569 2.7621 -1.3548
upperback 1.25718 3.3902 0.111755
thorax -6.24327 1.66119 0.256876
lowerneck -14.3588 -0.362141 -11.6425
upperneck 38.6067 -1.61788 7.02937
head 16.3801 -2.07691 4.73784
rclavicle -3.08116e-014 1.11319e-014
rhumerus -33.9669 -21.5397 -73.9866
rradius 37.8739
rwrist 7.49164
rhand -17.0516 9.53458
rfingers 7.12502
rthumb 9.18553 -20.2454
lclavicle -3.08116e-014 1.11319e-014
lhumerus -32.6719 6.15568 80.4595
lradius 33.5583
lwrist -3.28584
lhand -22.8849 22.2298
lfingers 7.12502
lthumb 3.55424 52.1799
rfemur -10.5565 6.26011 3.47867
rtibia 37.3252
rfoot -16.6542 -2.60177
rtoes 6.76468
lfemur -6.2437 -8.61859 -17.0367
ltibia 17.7875
lfoot -11.1346 -11.2848
ltoes -9.67969
211
root 13.0913 17.8561 2.95601 -171.55 -66.7344 171.058
lowerback 13.3977 2.67196 -1.50871
upperback 1.24561 3.2444 0.0807461
thorax -6.28232 1.59322 0.335791
lowerneck -14.386 -0.245273 -11.5713
upperneck 38.7778 -1.51522 7.06223
head 16.4596 -2.03897 4.76359
rclavicle 3.69739e-014 3.97569e-016
rhumerus -33.974 -20.9986 -74.5304
rradius 37.9174
rwrist 7.67471
rhand -16.3108 9.64794
rfingers 7.12502
rthumb 9.90031 -20.0993
lclavicle 3.69739e-014 3.97569e-016
lhumerus -32.6478 5.74125 80.2318
lradius 34.013
lwrist -2.93895
lhand -21.4132 22.6496
lfingers 7.12502
lthumb 4.97536 52.5712
rfemur -10.9156 5.50924 4.21582
rtibia 38.5305
rfoot -17.2434 -1.86023
rtoes 6.39199
lfemur -6.06653 -8.52253 -17.2639
ltibia 17.6507
lfoot -11.0778 -11.0249
ltoes -9.83156
212
root 13.0773 17.8682 3.03141 -171.974 -66.3874 171.422
lowerback 13.5177 2.58299 -1.64187
upperback 1.2356 3.10524 0.11289
thorax -6.36578 1.52861 0.4652
lowerneck -14.4457 -0.162889 -11.521
upperneck 38.9436 -1.36499 6.88688
head 16.5404 -2.01005 4.70662
rclavicle 5.06901e-014 -5.1684e-015
rhumerus -34.0388 -20.4015 -74.9695
rradius 38.0546
rwrist 7.92794
rhand -16.1843 9.82979
rfingers 7.12502
rthumb 10.0224 -19.9116
lclavicle 5.06901e-014 -5.1684e-015
lhumerus -32.6174 5.15235 80.1475
lradius 34.451
lwrist -2.42805
lhand -20.4607 22.8112
lfingers 7.12502
lthumb 5.89499 52.7092
rfemur -11.2083 4.74064 5.02775
rtibia 39.6625
rfoot -17.8173 -1.1245
rtoes 5.63296
lfemur -5.88647 -8.31834 -17.4183
ltibia 17.513
lfoot -10.8464 -11.0919
ltoes -8.64093
